<?xml version="1.0" standalone="no"?><svg xmlns="http://www.w3.org/2000/svg" viewBox="0 0 1440 320"><path fill="#d0f0c0" fill-opacity="1" d="M0,64L18.5,58.7C36.9,53,74,43,111,53.3C147.7,64,185,96,222,106.7C258.5,117,295,107,332,96C369.2,85,406,75,443,96C480,117,517,171,554,170.7C590.8,171,628,117,665,133.3C701.5,149,738,235,775,261.3C812.3,288,849,256,886,245.3C923.1,235,960,245,997,256C1033.8,267,1071,277,1108,277.3C1144.6,277,1182,267,1218,229.3C1255.4,192,1292,128,1329,122.7C1366.2,117,1403,171,1422,197.3L1440,224L1440,0L1421.5,0C1403.1,0,1366,0,1329,0C1292.3,0,1255,0,1218,0C1181.5,0,1145,0,1108,0C1070.8,0,1034,0,997,0C960,0,923,0,886,0C849.2,0,812,0,775,0C738.5,0,702,0,665,0C627.7,0,591,0,554,0C516.9,0,480,0,443,0C406.2,0,369,0,332,0C295.4,0,258,0,222,0C184.6,0,148,0,111,0C73.8,0,37,0,18,0L0,0Z"></path></svg>